<?xml version="1.0" ?><svg height="416.2225" id="svg2818" version="1.0" width="445.67999" xmlns="http://www.w3.org/2000/svg" xmlns:cc="http://creativecommons.org/ns#" xmlns:dc="http://purl.org/dc/elements/1.1/" xmlns:inkscape="http://www.inkscape.org/namespaces/inkscape" xmlns:rdf="http://www.w3.org/1999/02/22-rdf-syntax-ns#" xmlns:sodipodi="http://sodipodi.sourceforge.net/DTD/sodipodi-0.dtd" xmlns:svg="http://www.w3.org/2000/svg"><defs id="defs2820"><marker id="ArrowEnd" markerHeight="3" markerUnits="strokeWidth" markerWidth="4" orient="auto" refX="0" refY="5" viewBox="0 0 10 10"><path d="M 0,0 L 10,5 L 0,10 L 0,0 z" id="path2823"/></marker><marker id="ArrowStart" markerHeight="3" markerUnits="strokeWidth" markerWidth="4" orient="auto" refX="10" refY="5" viewBox="0 0 10 10"><path d="M 10,0 L 0,5 L 10,10 L 10,0 z" id="path2826"/></marker></defs><g id="g2828" transform="translate(-199.115,-199.115)"><g id="g2830"><path d="M 623.795,399.016 L 623.795,220.115 L 220.115,220.115 L 220.115,399.016 L 623.795,399.016 z" id="path2832" style="fill:none;stroke:#000000;stroke-width:42"/><path id="path2834" style="fill:none;stroke:#000000;stroke-width:42"/></g><path id="path2836" style="fill:#000000;stroke:#000000;stroke-width:1.85899997"/><g id="g2838"><g id="g2840"><path d="M 423.484,367.158 C 454.92,367.158 480.406,341.672 480.406,310.236 C 480.406,278.8 454.92,253.314 423.484,253.314 C 392.048,253.314 366.562,278.8 366.562,310.236 C 366.562,341.672 392.048,367.158 423.484,367.158 z" id="path2842" style="fill:#000000;stroke:#000000;stroke-width:1.85899997"/><path id="path2844" style="fill:#000000;stroke:#000000;stroke-width:1.85899997"/></g><g id="g2846"><path d="M 392.543,320.323 L 407.408,320.323 C 408.349,324.612 409.587,329.799 416.358,331.724 L 416.34,314.875 C 407.067,313.542 393.69,309.476 393.69,294.563 C 393.69,277.799 412.237,272.572 416.358,272.572 L 416.358,262.435 L 430.338,262.435 L 430.338,272.572 C 439.765,273.118 453.447,280.998 453.447,295.978 L 438.728,295.978 C 438.354,291.531 434.907,287.162 430.485,286.85 L 430.485,302.298 C 441.723,303.451 454.919,307.74 454.919,322.84 C 454.919,336.025 441.672,345.641 430.485,346.233 L 430.485,356.395 L 416.358,356.395 L 416.358,346.085 C 408.263,344.901 393.462,337.096 392.543,320.323 z" id="path2848" style="fill:#ffffff;stroke:none"/><g id="g2850"><path d="M 416.431,287.003 L 416.431,299.802 C 406.468,299.646 406.274,288.779 416.431,287.003 z" id="path2852" style="fill:#000000;stroke:none"/><g id="g2854"><path d="M 430.649,317.278 C 442.977,317.59 444.349,329.839 430.635,331.798" id="path2856" style="fill:#000000;stroke:none"/><path d="M 430.635,331.798 L 430.649,317.278" id="path2858" style="fill:#000000;stroke:none"/></g></g></g></g><g id="g2860"><g id="g2862"><path d="M 516.758,466.408 C 548.194,466.408 573.68,440.922 573.68,409.486 C 573.68,378.049 548.194,352.563 516.758,352.563 C 485.321,352.563 459.835,378.049 459.835,409.486 C 459.835,440.922 485.321,466.408 516.758,466.408 z" id="path2864" style="fill:#000000;stroke:#000000;stroke-width:1.85899997"/><path id="path2866" style="fill:#000000;stroke:#000000;stroke-width:1.85899997"/></g><path d="M 543.053,432.234 L 543.053,444.505 L 490.335,444.505 L 490.335,432.234 C 496.325,428.222 499.441,418.075 497.524,412.646 L 486.501,412.646 L 486.501,400.14 L 495.366,400.14 C 492.97,394.477 492.97,392.589 492.97,387.633 C 492.97,382.678 497.045,366.52 518.37,366.632 C 538.008,366.736 543.708,382.916 543.708,394.477 L 528.758,394.486 C 527.758,387.486 525.008,381.736 518.508,381.736 C 508.564,381.736 508.547,387.987 508.547,390.112 C 508.547,392.235 508.905,397.426 510.943,400.259 L 523.883,400.259 L 523.883,412.529 L 513.339,412.529 C 514.656,423.739 508.187,428.458 507.827,432.234 L 543.053,432.234 z" id="path2868" style="fill:#ffffff;stroke:none"/></g><g id="g2870"><g id="g2872"><path d="M 478.758,614.408 C 510.194,614.408 535.68,588.922 535.68,557.486 C 535.68,526.049 510.194,500.563 478.758,500.563 C 447.321,500.563 421.836,526.049 421.836,557.486 C 421.836,588.922 447.321,614.408 478.758,614.408 z" id="path2874" style="fill:#000000;stroke:#000000;stroke-width:1.85899997"/><path id="path2876" style="fill:#000000;stroke:#000000;stroke-width:1.85899997"/></g><path d="M 446.766,522.577 L 463.301,522.577 L 478.637,549.644 L 495.277,522.577 L 510.506,522.577 L 485.826,566.225 L 504.276,566.225 L 504.276,580.123 L 486.544,580.123 L 486.544,599.631 L 471.448,599.631 L 471.448,580.123 L 452.517,580.123 L 452.517,566.468 L 471.687,566.468 L 446.766,522.577 z" id="path2878" style="fill:#ffffff;stroke:none"/></g><g id="g2880"><g id="g2882"><path d="M 299.258,549.908 C 330.695,549.908 356.181,524.422 356.181,492.986 C 356.181,461.549 330.695,436.063 299.258,436.063 C 267.822,436.063 242.336,461.549 242.336,492.986 C 242.336,524.422 267.822,549.908 299.258,549.908 z" id="path2884" style="fill:#000000;stroke:#000000;stroke-width:1.85899997"/><path id="path2886" style="fill:#000000;stroke:#000000;stroke-width:1.85899997"/></g><g id="g2888"><path d="M 304.973,482.13 L 319.351,482.13 L 319.351,489.319 C 322.467,485.723 326.06,481.889 333.728,481.889 L 333.728,495.549 C 322.008,496.986 319.351,503.236 319.351,510.986 L 319.351,528.138 L 304.973,528.138 L 304.973,482.13 z" id="path2890" style="fill:#ffffff;stroke:none"/><path d="M 301.067,482.13 L 301.067,495.668 L 290.846,495.668 L 290.846,528.138 L 276.349,528.138 L 276.349,495.788 L 267.723,495.788 L 267.723,482.249 L 276.349,482.249 L 276.349,470.149 C 276.349,465.476 280.901,451.217 298.034,451.217 C 315.526,451.217 319.258,464.986 319.258,476.498 L 305.008,476.498 C 305.008,469.111 304.008,465.235 298.153,465.235 C 291.883,465.235 290.846,469.548 290.846,476.379 L 290.846,482.13 L 301.067,482.13 z" id="path2892" style="fill:#ffffff;stroke:none"/></g></g></g></svg>